<svg width="40" height="40" viewBox="0 0 40 40" fill="none" xmlns="http://www.w3.org/2000/svg">
<g clip-path="url(#clip0_404_1984)">
<path d="M20.0001 23.1604C21.7456 23.1604 23.1607 21.7454 23.1607 19.9999C23.1607 18.2544 21.7456 16.8394 20.0001 16.8394C18.2546 16.8394 16.8396 18.2544 16.8396 19.9999C16.8396 21.7454 18.2546 23.1604 20.0001 23.1604Z" fill="white"/>
<path d="M24.0421 12.0132H15.9579C14.911 12.0132 13.9069 12.4291 13.1667 13.1693C12.4264 13.9096 12.0105 14.9136 12.0105 15.9606V24.0421C12.0105 25.089 12.4264 26.0931 13.1667 26.8333C13.9069 27.5736 14.911 27.9895 15.9579 27.9895H24.0421C25.089 27.9895 26.093 27.5736 26.8333 26.8333C27.5736 26.0931 27.9895 25.089 27.9895 24.0421V15.9579C27.9888 14.9115 27.5726 13.9081 26.8324 13.1684C26.0922 12.4287 25.0885 12.0132 24.0421 12.0132ZM20 25.1737C18.9766 25.1742 17.9761 24.8712 17.1249 24.3031C16.2738 23.7349 15.6102 22.9271 15.2182 21.9817C14.8262 21.0364 14.7234 19.9961 14.9227 18.9923C15.1221 17.9885 15.6146 17.0664 16.3381 16.3426C17.0615 15.6188 17.9834 15.1258 18.987 14.9259C19.9907 14.7261 21.0311 14.8284 21.9766 15.2199C22.9221 15.6114 23.7303 16.2745 24.2989 17.1254C24.8675 17.9763 25.171 18.9767 25.171 20C25.1696 21.3713 24.6245 22.686 23.6551 23.6559C22.6857 24.6258 21.3712 25.1716 20 25.1737ZM25.2026 16.1053C24.9494 16.1058 24.7018 16.0312 24.4911 15.8908C24.2804 15.7505 24.116 15.5508 24.0189 15.317C23.9218 15.0832 23.8962 14.8258 23.9455 14.5775C23.9947 14.3291 24.1166 14.101 24.2956 13.922C24.4747 13.743 24.7028 13.6211 24.9511 13.5718C25.1995 13.5226 25.4568 13.5481 25.6906 13.6453C25.9244 13.7424 26.1241 13.9067 26.2645 14.1174C26.4048 14.3282 26.4794 14.5758 26.4789 14.829C26.4782 15.1673 26.3435 15.4915 26.1043 15.7307C25.8651 15.9699 25.5409 16.1046 25.2026 16.1053Z" fill="white"/>
<path d="M20 0C16.0444 0 12.1776 1.17298 8.8886 3.37061C5.59962 5.56824 3.03617 8.69181 1.52242 12.3463C0.00866564 16.0009 -0.387401 20.0222 0.384303 23.9018C1.15601 27.7814 3.06082 31.3451 5.85787 34.1421C8.65492 36.9392 12.2186 38.844 16.0982 39.6157C19.9778 40.3874 23.9992 39.9913 27.6537 38.4776C31.3082 36.9638 34.4318 34.4004 36.6294 31.1114C38.827 27.8224 40 23.9556 40 20C40 14.6957 37.8929 9.60859 34.1421 5.85786C30.3914 2.10714 25.3043 0 20 0V0ZM30 24.0421C29.9986 25.6218 29.3705 27.1364 28.2534 28.2534C27.1364 29.3705 25.6218 29.9986 24.0421 30H15.9579C14.3784 29.9979 12.8642 29.3695 11.7473 28.2527C10.6305 27.1358 10.0021 25.6216 10 24.0421V15.9579C10.0021 14.3784 10.6305 12.8642 11.7473 11.7473C12.8642 10.6305 14.3784 10.0021 15.9579 10H24.0421C25.6216 10.0021 27.1358 10.6305 28.2527 11.7473C29.3695 12.8642 29.9979 14.3784 30 15.9579V24.0421Z" fill="white"/>
</g>
<defs>
<clipPath id="clip0_404_1984">
<rect width="40" height="40" fill="white"/>
</clipPath>
</defs>
</svg>
