<svg width="40" height="40" viewBox="0 0 40 40" fill="none" xmlns="http://www.w3.org/2000/svg">
<g clip-path="url(#clip0_404_1981)">
<path d="M25.5262 14.4737L25.4867 14.4342C24.1786 13.1331 22.45 12.3402 20.6106 12.1976C18.7711 12.0549 16.9409 12.5719 15.4479 13.6558C13.9548 14.7397 12.8965 16.3198 12.4624 18.113C12.0283 19.9062 12.2468 21.7954 13.0788 23.4421L13.421 24.1158L12.7815 27.2158V27.2553L15.8525 26.5263L16.5525 26.8737C18.0094 27.5969 19.6565 27.8446 21.2617 27.5821C22.8669 27.3196 24.3492 26.5601 25.4999 25.4105C26.9446 23.9589 27.7578 21.9956 27.7627 19.9475C27.7677 17.8995 26.9639 15.9323 25.5262 14.4737ZM25.2157 23.1579C24.8394 23.75 24.242 24.4737 23.4973 24.6553C22.1815 24.9737 20.1788 24.6553 17.6709 22.3369L17.6394 22.3079C15.4578 20.2711 14.8788 18.5737 15.0078 17.229C15.0841 16.4658 15.721 15.7763 16.2578 15.3237C16.3429 15.2512 16.4439 15.1997 16.5526 15.1734C16.6613 15.1471 16.7747 15.1468 16.8836 15.1724C16.9924 15.198 17.0937 15.2489 17.1793 15.3209C17.2649 15.3929 17.3323 15.484 17.3762 15.5869L18.1841 17.429C18.2368 17.5465 18.2566 17.6762 18.2413 17.8042C18.226 17.9321 18.1762 18.0535 18.0973 18.1553L17.6867 18.6816C17.6014 18.7908 17.5506 18.9231 17.5407 19.0613C17.5309 19.1996 17.5625 19.3377 17.6315 19.4579C18.0216 20.0317 18.4882 20.5497 19.0183 20.9974C19.5875 21.5482 20.2348 22.0119 20.9394 22.3737C21.0677 22.4258 21.2087 22.4384 21.3442 22.4098C21.4797 22.3811 21.6036 22.3127 21.6999 22.2132L22.1709 21.7369C22.2589 21.6361 22.3733 21.562 22.5012 21.5229C22.6291 21.4838 22.7654 21.4814 22.8946 21.5158L24.8157 22.0684C24.9225 22.0997 25.0205 22.1553 25.1022 22.231C25.1838 22.3066 25.2467 22.4001 25.286 22.5042C25.3253 22.6083 25.3399 22.7201 25.3286 22.8308C25.3173 22.9415 25.2804 23.0481 25.2209 23.1421L25.2157 23.1579Z" fill="white"/>
<path d="M20 0C16.0444 0 12.1776 1.17298 8.8886 3.37061C5.59962 5.56824 3.03617 8.69181 1.52242 12.3463C0.00866564 16.0009 -0.387401 20.0222 0.384303 23.9018C1.15601 27.7814 3.06082 31.3451 5.85787 34.1421C8.65492 36.9392 12.2186 38.844 16.0982 39.6157C19.9778 40.3874 23.9992 39.9913 27.6537 38.4776C31.3082 36.9638 34.4318 34.4004 36.6294 31.1114C38.827 27.8224 40 23.9556 40 20C40 14.6957 37.8929 9.60859 34.1421 5.85786C30.3914 2.10714 25.3043 0 20 0V0ZM29.9132 20.2342C29.8591 21.8952 29.3888 23.5161 28.5454 24.948C27.702 26.38 26.5124 27.5772 25.0859 28.4298C23.6594 29.2824 22.0416 29.7631 20.381 29.8278C18.7204 29.8924 17.0701 29.5391 15.5816 28.8L10.5816 29.9895C10.506 30.0068 10.4269 30.001 10.3547 29.9729C10.2824 29.9447 10.2203 29.8955 10.1763 29.8316C10.1463 29.7889 10.1254 29.7404 10.115 29.6892C10.1046 29.638 10.1049 29.5853 10.1158 29.5342L11.1684 24.4237C10.4804 23.0755 10.1099 21.5877 10.0854 20.0743C10.0609 18.5608 10.3831 17.0618 11.0272 15.6921C11.6713 14.3223 12.6203 13.1181 13.8015 12.1716C14.9827 11.2251 16.3648 10.5615 17.8421 10.2314C19.3193 9.90141 20.8525 9.91377 22.3242 10.2676C23.7959 10.6214 25.1671 11.3072 26.3329 12.2727C27.4987 13.2381 28.4282 14.4574 29.0501 15.8374C29.672 17.2174 29.9699 18.7214 29.9211 20.2342H29.9132Z" fill="white"/>
</g>
<defs>
<clipPath id="clip0_404_1981">
<rect width="40" height="40" fill="white"/>
</clipPath>
</defs>
</svg>
