<svg width="40" height="40" viewBox="0 0 40 40" fill="none" xmlns="http://www.w3.org/2000/svg">
<circle cx="20" cy="20" r="20" fill="white"/>
<path d="M29.3125 12H10.5625C10.1481 12 9.75067 12.1646 9.45765 12.4576C9.16462 12.7507 9 13.1481 9 13.5625V26.0625C9 26.4769 9.16462 26.8743 9.45765 27.1674C9.75067 27.4604 10.1481 27.625 10.5625 27.625H29.3125C29.7269 27.625 30.1243 27.4604 30.4174 27.1674C30.7104 26.8743 30.875 26.4769 30.875 26.0625V13.5625C30.875 13.1481 30.7104 12.7507 30.4174 12.4576C30.1243 12.1646 29.7269 12 29.3125 12ZM27.5938 13.5625L19.9375 18.8594L12.2812 13.5625H27.5938ZM10.5625 26.0625V14.2734L19.4922 20.4531C19.623 20.5438 19.7783 20.5925 19.9375 20.5925C20.0967 20.5925 20.252 20.5438 20.3828 20.4531L29.3125 14.2734V26.0625H10.5625Z" fill="#3A3A3C"/>
</svg>
